<svg width="512" height="512" xmlns="http://www.w3.org/2000/svg">

 <g>
  <title>background</title>
  <rect fill="none" id="canvas_background" height="402" width="582" y="-1" x="-1"/>
 </g>
 <g>
  <title>Layer 1</title>
  <g id="svg_1">
   <g id="svg_2">
    <g id="svg_3">
     <path id="svg_4" fill="#FFFFFF" class="active-path" d="m437.02,330.98c-27.883,-27.882 -61.071,-48.523 -97.281,-61.018c38.782,-26.711 64.261,-71.414 64.261,-121.962c0,-81.607 -66.393,-148 -148,-148s-148,66.393 -148,148c0,50.548 25.479,95.251 64.262,121.962c-36.21,12.495 -69.398,33.136 -97.281,61.018c-48.352,48.353 -74.981,112.64 -74.981,181.02l40,0c0,-119.103 96.897,-216 216,-216s216,96.897 216,216l40,0c0,-68.38 -26.629,-132.667 -74.98,-181.02zm-181.02,-74.98c-59.551,0 -108,-48.448 -108,-108s48.449,-108 108,-108c59.551,0 108,48.448 108,108s-48.449,108 -108,108z"/>
    </g>
   </g>
  </g>
  <g stroke="null" id="svg_13">
   <g stroke="null" transform="matrix(0.21072055086371974,0,0,0.2146267953107467,-157.3209117228114,-353.02086479340636) " id="svg_9">
    <g stroke="null" id="svg_10">
     <g stroke="null" id="svg_11">
      <path stroke="null" id="svg_12" fill="#FFFFFF" class="active-path" d="m3148.961929,1888.060673l-216,0l0,-216c0,-11.046 -8.954,-20 -20,-20c-11.046,0 -20,8.954 -20,20l0,216l-216,0c-11.046,0 -20,8.954 -20,20s8.954,20 20,20l216,0l0,216c0,11.046 8.954,20 20,20s20,-8.954 20,-20l0,-216l216,0c11.046,0 20,-8.954 20,-20c0,-11.046 -8.954,-20 -20,-20z"/>
     </g>
    </g>
   </g>
  </g>
 </g>
</svg>