<svg width="24" height="24" xmlns="http://www.w3.org/2000/svg">

 <g>
  <title>background</title>
  <rect fill="none" id="canvas_background" height="402" width="582" y="-1" x="-1"/>
 </g>
 <g>
  <title>Layer 1</title>
  <path stroke="null" fill="#ffffff" id="svg_3" d="m21.479892,15.94335l-19.008517,0c-0.349005,0 -0.633786,0.288908 -0.633786,0.64282l0,2.745428c0,0.339467 0.284781,0.61714 0.633786,0.61714l19.008517,0c0.34985,0 0.633786,-0.277673 0.633786,-0.617942l0,-2.744626c0,-0.353912 -0.283936,-0.64282 -0.633786,-0.64282zm0,-6.420177l-19.008517,0c-0.349005,0 -0.633786,0.288908 -0.633786,0.64282l0,2.745428c0,0.340269 0.284781,0.61714 0.633786,0.61714l19.008517,0c0.34985,0 0.633786,-0.27687 0.633786,-0.61714l0,-2.745428c0,-0.353912 -0.283936,-0.64282 -0.633786,-0.64282zm0,-6.420177l-19.008517,0c-0.349005,0 -0.633786,0.288908 -0.633786,0.64282l0,2.744626c0,0.339467 0.284781,0.61714 0.633786,0.61714l19.008517,0c0.34985,0 0.633786,-0.277673 0.633786,-0.61714l0,-2.744626c0,-0.353912 -0.283936,-0.64282 -0.633786,-0.64282z"/>
 </g>
</svg>