<svg width="973.125" height="1024" xmlns="http://www.w3.org/2000/svg">

 <g>
  <title>background</title>
  <rect fill="none" id="canvas_background" height="402" width="582" y="-1" x="-1"/>
 </g>
 <g>
  <title>Layer 1</title>
  <path stroke="null" fill="#5db3fa" id="svg_1" d="m906.43652,804.353149l-217.063098,-219.890691c30.986111,-51.249426 49.773124,-110.966132 49.773124,-175.537425c0,-187.149596 -149.863935,-338.938385 -334.579948,-338.938385c-184.743024,0 -334.579948,151.788789 -334.579948,338.938385c0,187.122233 149.836925,338.938385 334.579948,338.938385c63.740965,0 122.68977,-19.031743 173.280175,-50.311167l217.063098,219.780359c15.247784,15.446411 40.515541,15.336079 55.763325,0l55.763325,-56.489731c15.247784,-15.446411 15.247784,-41.04332 0,-56.489731zm-501.869923,-169.469193c-123.180313,0 -223.053299,-101.173991 -223.053299,-225.958923s99.872986,-225.958923 223.053299,-225.958923s223.053299,101.173991 223.053299,225.958923s-99.872986,225.958923 -223.053299,225.958923z"/>
 </g>
</svg>